<svg width="902" height="200" viewBox="0 0 902 200" fill="none" xmlns="http://www.w3.org/2000/svg">
<path d="M363.561 109.403H406.995L406.754 113.175C405.905 126.334 393.618 135.176 376.184 135.176C367.165 135.176 359.422 131.744 353.898 125.317C348.369 118.89 345.446 109.975 345.446 99.6174C345.446 89.2594 348.301 80.4583 353.693 74.1128C359.235 67.6175 367.011 64.1906 376.189 64.1906C387.808 64.1906 397.095 70.7948 401.076 81.8563L401.158 82.0742L417.884 78.9786L417.779 78.679C414.752 69.7871 409.096 62.0209 401.562 56.4107C394.227 50.9458 385.326 48 376.179 48C362.172 48 350.207 52.8794 341.574 62.1753C332.941 71.4711 328.379 84.4617 328.379 99.6128C328.379 114.764 332.519 127.614 340.521 137.005C348.519 146.396 359.635 151.357 372.671 151.357C388.675 151.357 400.921 142.829 404.993 133.66H407.054V150.445H422.2V94.2568H363.566V109.403H363.561Z" fill="white"/>
<path d="M481.251 48C466.958 48 454.784 52.9248 446.065 62.2252C437.35 71.521 432.734 84.4481 432.734 99.6174C432.734 114.787 437.441 127.982 446.137 137.232C454.834 146.478 466.971 151.362 481.242 151.362C495.512 151.362 507.586 146.419 516.287 137.109C524.993 127.8 529.605 114.778 529.605 99.6174C529.605 84.4572 525.002 71.5256 516.287 62.2252C507.577 52.9203 495.544 48 481.251 48ZM504.096 125.231C498.467 131.713 490.597 135.176 481.242 135.176C471.887 135.176 463.957 131.74 458.302 125.245C452.778 118.89 449.85 109.994 449.85 99.6174C449.85 89.2413 452.773 80.422 458.306 74.0765C463.935 67.6039 471.892 64.1906 481.242 64.1906C490.592 64.1906 498.485 67.613 504.087 74.0901C509.61 80.4175 512.497 89.214 512.497 99.6174C512.497 110.021 509.592 118.89 504.091 125.231H504.096Z" fill="white"/>
<path d="M638.605 147.835H655.699V103.539H702.746V88.3923H655.699V66.4009H707.952V50.2148H638.605V147.835Z" fill="white"/>
<path d="M266.434 50.2148L232.26 147.844H251.165L259.921 121.786H300.631L309.364 147.844H327.407L294.122 50.2148H266.439H266.434ZM265.191 106.634L278.385 62.9422H282.425L295.37 106.634H265.191Z" fill="white"/>
<path d="M834.179 50.2148L812.247 91.2019H808.366L786.429 50.2148H767.029L795.139 99.6444H801.762V147.762H818.865V99.6444H825.473L853.588 50.2148H834.179Z" fill="white"/>
<path d="M609.076 132.006H605.794L569.618 50.2312L540.406 50.2222V147.829H557.508V66.1268H560.436L596.948 147.829H626.174V50.2222H609.076V132.006Z" fill="white"/>
<path d="M735.147 50.4028H717.531V147.805H730.286H735.147H783.238V132.618H735.147V50.4028Z" fill="white"/>
<path d="M86.5859 50.2148H48V147.844H83.7309C98.0605 147.844 110.257 143.173 119.058 134.34C127.859 125.508 132.475 113.221 132.475 98.832C132.475 84.4434 128.036 72.1336 119.807 63.4823C111.582 54.831 100.094 50.2148 86.5859 50.2148V50.2148ZM107.719 122.43C102.581 128.467 95.3598 131.658 86.8447 131.658H65.0984V66.3918H83.7173C93.0721 66.3918 101.056 69.5055 106.712 75.3245C112.372 81.1435 115.363 89.2365 115.363 98.8183C115.363 108.4 112.721 116.566 107.715 122.426L107.719 122.43Z" fill="white"/>
<path d="M204.334 97.5883C212.191 97.4203 217.057 95.2734 220.584 90.4121C222.712 86.7628 223.806 82.6005 223.738 78.3747C223.738 70.0865 220.665 63.0511 214.851 57.972C209.036 52.8974 200.925 50.2148 191.411 50.2148H144.492V147.844H161.595V111.228H194.757C202.201 111.228 204.547 115.363 204.547 119.879V147.839H220.629V116.725C220.629 107.901 216.058 101.642 208.578 101.642C207.702 101.642 201.538 101.66 200.88 101.66V97.6564L204.343 97.5792L204.334 97.5883ZM191.407 95.0464H161.586V66.4054H191.407C200.521 66.4054 206.64 71.9475 206.64 80.2039C206.64 88.4604 200.231 95.0464 191.407 95.0464V95.0464Z" fill="white"/>
</svg>
