<svg width="1174" height="200" viewBox="0 0 1174 200" fill="none" xmlns="http://www.w3.org/2000/svg">
<path d="M635.553 109.403H678.987L678.746 113.175C677.897 126.334 665.61 135.176 648.176 135.176C639.157 135.176 631.414 131.744 625.89 125.317C620.361 118.89 617.438 109.975 617.438 99.6174C617.438 89.2594 620.293 80.4583 625.686 74.1128C631.228 67.6175 639.003 64.1906 648.181 64.1906C659.801 64.1906 669.087 70.7948 673.068 81.8563L673.15 82.0742L689.876 78.9786L689.772 78.679C686.744 69.7871 681.088 62.0209 673.554 56.4107C666.219 50.9458 657.318 48 648.172 48C634.164 48 622.2 52.8794 613.566 62.1753C604.933 71.4711 600.372 84.4617 600.372 99.6128C600.372 114.764 604.511 127.614 612.513 137.005C620.511 146.396 631.627 151.357 644.663 151.357C660.668 151.357 672.914 142.829 676.985 133.66H679.046V150.445H694.192V94.2568H635.558V109.403H635.553Z" fill="#F2F2F2"/>
<path d="M753.243 48C738.95 48 726.776 52.9248 718.057 62.2252C709.342 71.521 704.726 84.4481 704.726 99.6174C704.726 114.787 709.433 127.982 718.129 137.232C726.826 146.478 738.963 151.362 753.234 151.362C767.505 151.362 779.578 146.419 788.28 137.109C796.985 127.8 801.597 114.778 801.597 99.6174C801.597 84.4572 796.994 71.5256 788.28 62.2252C779.569 52.9203 767.536 48 753.243 48ZM776.088 125.231C770.459 131.713 762.589 135.176 753.234 135.176C743.879 135.176 735.95 131.74 730.294 125.245C724.77 118.89 721.842 109.994 721.842 99.6174C721.842 89.2413 724.765 80.422 730.298 74.0765C735.927 67.6039 743.884 64.1906 753.234 64.1906C762.584 64.1906 770.478 67.613 776.079 74.0901C781.603 80.4175 784.489 89.214 784.489 99.6174C784.489 110.021 781.585 118.89 776.083 125.231H776.088Z" fill="#F2F2F2"/>
<path d="M910.598 147.835H927.692V103.539H974.738V88.3923H927.692V66.4009H979.944V50.2148H910.598V147.835Z" fill="#F2F2F2"/>
<path d="M538.427 50.2148L504.252 147.844H523.157L531.913 121.786H572.623L581.356 147.844H599.399L566.114 50.2148H538.431H538.427ZM537.183 106.634L550.378 62.9422H554.417L567.363 106.634H537.183Z" fill="#F2F2F2"/>
<path d="M1106.17 50.2148L1084.24 91.2019H1080.36L1058.42 50.2148H1039.02L1067.13 99.6444H1073.75V147.762H1090.86V99.6444H1097.47L1125.58 50.2148H1106.17Z" fill="#F2F2F2"/>
<path d="M881.068 132.006H877.786L841.611 50.2312L812.398 50.2222V147.829H829.501V66.1268H832.428L868.94 147.829H898.166V50.2222H881.068V132.006Z" fill="#F2F2F2"/>
<path d="M1007.14 50.4028H989.524V147.805H1002.28H1007.14H1055.23V132.618H1007.14V50.4028Z" fill="#F2F2F2"/>
<path d="M358.578 50.2148H319.992V147.844H355.723C370.053 147.844 382.249 143.173 391.05 134.34C399.851 125.508 404.467 113.221 404.467 98.832C404.467 84.4434 400.028 72.1336 391.799 63.4823C383.574 54.831 372.086 50.2148 358.578 50.2148V50.2148ZM379.712 122.43C374.574 128.467 367.352 131.658 358.837 131.658H337.091V66.3918H355.709C365.064 66.3918 373.048 69.5055 378.704 75.3245C384.364 81.1435 387.355 89.2365 387.355 98.8183C387.355 108.4 384.714 116.566 379.707 122.426L379.712 122.43Z" fill="#F2F2F2"/>
<path d="M476.326 97.5883C484.183 97.4203 489.049 95.2734 492.576 90.4121C494.705 86.7628 495.798 82.6005 495.73 78.3747C495.73 70.0865 492.657 63.0511 486.843 57.972C481.029 52.8974 472.917 50.2148 463.404 50.2148H416.484V147.844H433.587V111.228H466.749C474.193 111.228 476.54 115.363 476.54 119.879V147.839H492.621V116.725C492.621 107.901 488.05 101.642 480.57 101.642C479.694 101.642 473.53 101.66 472.872 101.66V97.6564L476.335 97.5792L476.326 97.5883ZM463.399 95.0464H433.578V66.4054H463.399C472.513 66.4054 478.632 71.9475 478.632 80.2039C478.632 88.4604 472.223 95.0464 463.399 95.0464V95.0464Z" fill="#F2F2F2"/>
<path d="M97.1436 99.7092V98.57L48 81.9936V62.8799L114.188 86.6097V111.66L48 135.163V116.054L97.1436 99.7092V99.7092Z" fill="#F2F2F2"/>
<path d="M132.021 147.844V50.2148H150.272V147.844H132.021Z" fill="#F2F2F2"/>
<path d="M233.809 135.163L167.622 111.66V86.6097L233.809 62.8799V81.989L184.665 98.57V99.7092L233.809 116.054V135.163Z" fill="#F2F2F2"/>
</svg>
