<svg width="11" height="11" viewBox="0 0 11 11" fill="none" xmlns="http://www.w3.org/2000/svg">
<path d="M1.00064 0.833333C1.00064 1.29167 1.37564 1.66667 1.83398 1.66667H8.15898L0.758976 9.06666C0.681824 9.14382 0.620624 9.23541 0.57887 9.33621C0.537116 9.43702 0.515625 9.54506 0.515625 9.65417C0.515625 9.76327 0.537116 9.87132 0.57887 9.97212C0.620624 10.0729 0.681824 10.1645 0.758976 10.2417C0.836127 10.3188 0.92772 10.38 1.02852 10.4218C1.12933 10.4635 1.23737 10.485 1.34648 10.485C1.45558 10.485 1.56362 10.4635 1.66443 10.4218C1.76523 10.38 1.85682 10.3188 1.93398 10.2417L9.33398 2.84167V9.16667C9.33398 9.625 9.70898 10 10.1673 10C10.6256 10 11.0006 9.625 11.0006 9.16667V0.833333C11.0006 0.375 10.6256 0 10.1673 0H1.83398C1.37564 0 1.00064 0.375 1.00064 0.833333Z" fill="#00FF7E"/>
</svg>
