<svg width="20" height="20" viewBox="0 0 20 20" fill="none" xmlns="http://www.w3.org/2000/svg">
<path d="M19.9996 10.0367C19.9996 4.49365 15.5225 0 9.9998 0C4.47711 0 0 4.49365 0 10.0367C0 14.7436 3.22874 18.6932 7.58425 19.778V13.104H5.52229V10.0367H7.58425V8.7151C7.58425 5.29899 9.12462 3.7156 12.4662 3.7156C13.0997 3.7156 14.1929 3.84046 14.6401 3.96491V6.74509C14.4041 6.7202 13.9941 6.70775 13.4849 6.70775C11.8454 6.70775 11.2118 7.33123 11.2118 8.95196V10.0367H14.4781L13.9169 13.104H11.2118V20C16.1633 19.3998 20 15.1683 20 10.0367H19.9996Z" fill="black"/>
</svg>
